<svg xmlns="http://www.w3.org/2000/svg" width="1100" height="520" viewBox="0 0 1100 520">
  <rect width="1100" height="520" fill="#f3efe6"/>
  <text x="50" y="60" fill="#16202a" font-family="Avenir, Helvetica, sans-serif" font-size="34" font-weight="700">Static Routing Topology</text>
  <text x="50" y="95" fill="#4b5a68" font-family="Avenir, Helvetica, sans-serif" font-size="20">Tarun Jaganathan | PES1UG24AM304</text>

  <line x1="150" y1="260" x2="310" y2="260" stroke="#355c7d" stroke-width="8"/>
  <line x1="390" y1="220" x2="540" y2="160" stroke="#355c7d" stroke-width="8"/>
  <line x1="620" y1="160" x2="770" y2="160" stroke="#355c7d" stroke-width="8"/>
  <line x1="850" y1="160" x2="990" y2="260" stroke="#355c7d" stroke-width="8"/>

  <line x1="390" y1="300" x2="540" y2="360" stroke="#b56576" stroke-width="8" stroke-dasharray="14 10"/>
  <line x1="620" y1="360" x2="770" y2="360" stroke="#b56576" stroke-width="8" stroke-dasharray="14 10"/>
  <line x1="850" y1="360" x2="990" y2="260" stroke="#b56576" stroke-width="8" stroke-dasharray="14 10"/>

  <rect x="70" y="220" width="80" height="80" rx="18" fill="#ffd166"/>
  <text x="94" y="268" fill="#1f2933" font-family="Menlo, monospace" font-size="28">h1</text>

  <rect x="310" y="200" width="80" height="80" rx="18" fill="#4ecdc4"/>
  <text x="334" y="248" fill="#102a43" font-family="Menlo, monospace" font-size="28">s1</text>

  <rect x="540" y="120" width="80" height="80" rx="18" fill="#4ecdc4"/>
  <text x="564" y="168" fill="#102a43" font-family="Menlo, monospace" font-size="28">s2</text>

  <rect x="540" y="320" width="80" height="80" rx="18" fill="#4ecdc4"/>
  <text x="564" y="368" fill="#102a43" font-family="Menlo, monospace" font-size="28">s3</text>

  <rect x="770" y="120" width="80" height="80" rx="18" fill="#4ecdc4"/>
  <text x="794" y="168" fill="#102a43" font-family="Menlo, monospace" font-size="28">s4</text>

  <rect x="990" y="220" width="80" height="80" rx="18" fill="#ffd166"/>
  <text x="1014" y="268" fill="#1f2933" font-family="Menlo, monospace" font-size="28">h4</text>

  <text x="450" y="70" fill="#355c7d" font-family="Avenir, Helvetica, sans-serif" font-size="22" font-weight="700">Primary route</text>
  <text x="450" y="100" fill="#355c7d" font-family="Menlo, monospace" font-size="20">h1 - s1 - s2 - s4 - h4</text>

  <text x="430" y="445" fill="#b56576" font-family="Avenir, Helvetica, sans-serif" font-size="22" font-weight="700">Alternate path available but unused</text>
  <text x="470" y="475" fill="#b56576" font-family="Menlo, monospace" font-size="20">s1 - s3 - s4</text>
</svg>
